<?xml version="1.0" encoding="UTF-8"?>
<!DOCTYPE svg PUBLIC "-//W3C//DTD SVG 1.1//EN" "http://www.w3.org/Graphics/SVG/1.1/DTD/svg11.dtd">
<svg xmlns="http://www.w3.org/2000/svg" version="1.1" width="1500px" height="866px" style="shape-rendering:geometricPrecision; text-rendering:geometricPrecision; image-rendering:optimizeQuality; fill-rule:evenodd; clip-rule:evenodd" xmlns:xlink="http://www.w3.org/1999/xlink">
<g><path style="opacity:0.942" fill="#000000" d="M 1409.5,346.5 C 1410.92,346.291 1412.26,345.791 1413.5,345C 1418.32,340.682 1422.99,336.182 1427.5,331.5C 1429.17,330.11 1430.84,329.777 1432.5,330.5C 1431.74,335.421 1430.24,340.087 1428,344.5C 1420.84,352.663 1413.34,360.496 1405.5,368C 1407.05,368.333 1408.38,367.833 1409.5,366.5C 1415.48,360.361 1421.98,354.694 1429,349.5C 1428.95,355.84 1428.28,362.173 1427,368.5C 1421.38,374.128 1416.05,380.128 1411,386.5C 1410.36,389.328 1408.7,391.328 1406,392.5C 1405.15,394.193 1404.32,395.86 1403.5,397.5C 1405.26,396.928 1406.92,396.094 1408.5,395C 1414.02,388.478 1419.86,382.312 1426,376.5C 1426.92,377.047 1427.76,377.713 1428.5,378.5C 1427.71,383.781 1427.21,389.115 1427,394.5C 1423.95,395.519 1422.62,397.519 1423,400.5C 1424.53,398.154 1426.37,397.154 1428.5,397.5C 1427.72,402.113 1427.22,406.78 1427,411.5C 1426.25,412.126 1425.42,412.626 1424.5,413C 1424.83,413.333 1425.17,413.667 1425.5,414C 1424.58,414.374 1423.75,414.874 1423,415.5C 1418.68,422.121 1414.35,428.787 1410,435.5C 1409.25,436.126 1408.42,436.626 1407.5,437C 1407.83,437.333 1408.17,437.667 1408.5,438C 1406.54,439.451 1405.2,441.284 1404.5,443.5C 1408.42,440.98 1411.92,437.98 1415,434.5C 1415.33,433.5 1415.67,432.5 1416,431.5C 1419.32,428.012 1422.82,424.679 1426.5,421.5C 1425.81,438.584 1420.64,454.251 1411,468.5C 1406.02,474.357 1401.18,480.19 1396.5,486C 1398.65,487.411 1400.98,488.245 1403.5,488.5C 1403.72,489.675 1403.39,490.675 1402.5,491.5C 1399.59,493.066 1396.93,494.9 1394.5,497C 1395.83,497.667 1397.17,497.667 1398.5,497C 1401.67,493.801 1405.33,492.967 1409.5,494.5C 1410.5,496.816 1412.16,498.483 1414.5,499.5C 1411.65,502.844 1408.65,506.011 1405.5,509C 1409.35,507.387 1413.35,506.053 1417.5,505C 1420.2,507.403 1421.87,510.403 1422.5,514C 1420.63,515.44 1418.96,517.107 1417.5,519C 1420.09,519.462 1422.26,518.629 1424,516.5C 1426.64,518.467 1428.14,521.133 1428.5,524.5C 1429.67,524.919 1430.67,525.585 1431.5,526.5C 1439.56,543.218 1452.89,551.218 1471.5,550.5C 1475.13,548.967 1478.8,548.633 1482.5,549.5C 1480.84,550.828 1479.01,551.828 1477,552.5C 1469.96,554.068 1463.13,556.235 1456.5,559C 1447.26,560.699 1438.09,562.199 1429,563.5C 1421.09,562.285 1413.26,560.619 1405.5,558.5C 1392.73,552.073 1379.89,545.74 1367,539.5C 1354.93,535.316 1342.26,532.316 1329,530.5C 1315.39,530.515 1301.73,530.515 1288,530.5C 1258.49,541.422 1228.99,552.422 1199.5,563.5C 1164.5,574.67 1129.5,585.837 1094.5,597C 1076.16,602.003 1057.83,607.169 1039.5,612.5C 989.527,632.648 939.194,651.981 888.5,670.5C 859.84,678.556 830.84,685.222 801.5,690.5C 796.04,692.318 790.707,694.318 785.5,696.5C 785.841,708.338 787.841,719.505 791.5,730C 792.279,734.51 793.113,739.01 794,743.5C 797.38,751.208 799.547,759.041 800.5,767C 801.667,767.5 802.5,768.333 803,769.5C 803.912,772.982 804.745,776.482 805.5,780C 810.27,789.622 813.937,799.288 816.5,809C 816.905,809.945 817.572,810.612 818.5,811C 818.167,811.333 817.833,811.667 817.5,812C 821.429,820.961 825.429,829.961 829.5,839C 829.167,839.333 828.833,839.667 828.5,840C 830.904,842.503 832.571,845.503 833.5,849C 833.387,850.28 832.72,851.113 831.5,851.5C 824.674,848.836 817.674,846.669 810.5,845C 794.895,838.376 780.895,829.376 768.5,818C 767.552,817.517 766.552,817.351 765.5,817.5C 760.634,810.797 754.8,804.797 748,799.5C 742.489,792.461 736.989,785.461 731.5,778.5C 722.486,764.464 713.486,750.464 704.5,736.5C 704.709,735.914 705.043,735.414 705.5,735C 703.824,733.823 702.491,732.323 701.5,730.5C 701.167,731.667 700.833,732.833 700.5,734C 701.496,739.81 702.329,745.643 703,751.5C 705.764,759.987 707.764,768.654 709,777.5C 709.585,779.129 710.419,780.629 711.5,782C 711.355,782.772 711.022,783.439 710.5,784C 711.516,784.519 712.182,785.353 712.5,786.5C 715.335,796.836 718.169,807.169 721,817.5C 724.882,828.291 728.715,839.124 732.5,850C 734.562,855.378 736.895,860.545 739.5,865.5C 737.167,865.5 734.833,865.5 732.5,865.5C 720.914,861.582 709.914,856.416 699.5,850C 695.587,846.271 691.254,843.271 686.5,841C 678.723,834.226 671.223,827.059 664,819.5C 659.093,812.884 653.926,806.55 648.5,800.5C 640.161,787.124 631.994,774.124 624,761.5C 621.149,756.358 618.983,751.358 617.5,746.5C 616.5,746.5 615.5,746.5 614.5,746.5C 614.527,771.337 617.694,795.671 624,819.5C 624.591,822.275 625.758,824.775 627.5,827C 627.355,827.772 627.022,828.439 626.5,829C 628.754,833.075 630.754,837.241 632.5,841.5C 633.484,844.428 633.817,847.428 633.5,850.5C 630.833,850.5 628.167,850.5 625.5,850.5C 625.33,849.178 625.663,848.011 626.5,847C 610.67,843.749 596.004,837.749 582.5,829C 581.207,828.51 579.873,828.343 578.5,828.5C 578.719,827.325 578.386,826.325 577.5,825.5C 575.459,824.764 573.459,823.931 571.5,823C 561.217,815.379 551.217,807.546 541.5,799.5C 541.709,798.914 542.043,798.414 542.5,798C 539.228,797.563 537.561,795.73 537.5,792.5C 536.448,792.649 535.448,792.483 534.5,792C 513.604,771.483 496.104,748.983 482,724.5C 479.195,721.094 476.695,716.927 474.5,712C 471.167,710.5 467.833,709 464.5,707.5C 452.72,703.888 440.72,700.888 428.5,698.5C 411.452,692.04 394.119,686.373 376.5,681.5C 353.009,671.113 329.343,661.113 305.5,651.5C 293.556,649.789 281.556,648.456 269.5,647.5C 248.605,642.221 227.605,637.388 206.5,633C 186.667,624.833 166.833,616.667 147,608.5C 128.842,598.504 110.342,589.171 91.5,580.5C 62.7613,561.906 34.7613,542.406 7.5,522C 7.83333,521.667 8.16667,521.333 8.5,521C 7.58377,520.626 6.75044,520.126 6,519.5C 4.27757,516.721 3.11091,513.721 2.5,510.5C 8.63003,510.635 14.63,509.801 20.5,508C 41.9302,501.378 63.4302,494.878 85,488.5C 127.345,478.497 168.178,464.33 207.5,446C 227.12,434.971 241.62,419.805 251,400.5C 251.667,395.833 251.667,391.167 251,386.5C 242.373,367.337 228.206,362.004 208.5,370.5C 203.345,373.829 198.345,377.329 193.5,381C 187.629,388.363 181.629,395.529 175.5,402.5C 151.84,394.636 134.84,379.803 124.5,358C 115.661,329.726 121.327,305.726 141.5,286C 155.046,274.893 170.379,267.56 187.5,264C 226.601,258.255 259.768,269.422 287,297.5C 303.811,318.231 317.645,339.897 328.5,362.5C 329.5,330.174 329.833,297.84 329.5,265.5C 338.173,265.666 346.84,265.5 355.5,265C 351.07,257.718 347.404,250.051 344.5,242C 344.759,240.739 345.426,239.739 346.5,239C 344.686,232.803 343.02,226.47 341.5,220C 341.944,218.238 342.444,218.405 343,220.5C 343.167,219.667 343.333,218.833 343.5,218C 343.79,212.479 343.29,206.979 342,201.5C 337.31,194.429 332.81,187.762 328.5,181.5C 324.419,174.472 326.419,171.139 334.5,171.5C 339.216,171.772 343.716,172.105 348,172.5C 348.5,172 349,171.5 349.5,171C 344.933,166.328 341.266,160.994 338.5,155C 336.837,152.073 337.67,150.239 341,149.5C 343.795,150.185 346.628,150.685 349.5,151C 351.402,151.199 352.902,152.033 354,153.5C 354.833,151 356,150.833 357.5,153C 357.167,153.333 356.833,153.667 356.5,154C 357.448,154.483 358.448,154.649 359.5,154.5C 359.657,153.127 359.49,151.793 359,150.5C 353.665,144.028 347.999,137.695 342,131.5C 341.887,129.026 340.887,127.026 339,125.5C 338.176,122.118 338.343,118.784 339.5,115.5C 341.5,115.167 343.5,114.833 345.5,114.5C 357.608,118.719 369.108,124.053 380,130.5C 381.871,130.291 383.038,129.291 383.5,127.5C 382.299,125.091 380.633,123.091 378.5,121.5C 378.709,120.914 379.043,120.414 379.5,120C 376.989,117.821 374.822,115.321 373,112.5C 370.604,106.769 367.271,101.103 363,95.5C 358.508,89.8419 353.674,84.5086 348.5,79.5C 342.39,76.8293 338.39,72.4959 336.5,66.5C 336.393,64.6214 336.893,64.2881 338,65.5C 339.351,64.0394 340.851,62.706 342.5,61.5C 347.609,63.353 352.942,64.5197 358.5,65C 368.019,68.9258 376.352,74.5925 383.5,82C 384.793,82.49 386.127,82.6567 387.5,82.5C 387.351,83.552 387.517,84.552 388,85.5C 392,89.5 396,93.5 400,97.5C 401.84,96.1669 402.34,96.3335 401.5,98C 403.679,99.2567 405.679,100.757 407.5,102.5C 409.068,100.8 410.901,99.4664 413,98.5C 414.809,94.4303 414.975,90.2637 413.5,86C 411.97,83.0738 410.637,80.0738 409.5,77C 409.833,76.6667 410.167,76.3333 410.5,76C 409.382,74.9264 408.382,73.7598 407.5,72.5C 404.193,64.2367 400.526,56.2367 396.5,48.5C 393.721,47.3265 393.054,45.4932 394.5,43C 393.584,42.6258 392.75,42.1258 392,41.5C 389.913,36.3165 387.08,31.6498 383.5,27.5C 382.731,24.8853 382.397,22.2186 382.5,19.5C 386.979,19.5359 391.312,20.3693 395.5,22C 396.126,22.7504 396.626,23.5838 397,24.5C 397.718,23.5494 398.551,23.3828 399.5,24C 404.262,27.0186 408.928,30.1853 413.5,33.5C 420.968,42.3868 428.635,51.0535 436.5,59.5C 439.468,64.9639 442.634,70.2972 446,75.5C 448.253,78.0948 450.42,77.9281 452.5,75C 452.043,74.586 451.709,74.086 451.5,73.5C 452.964,70.9342 454.131,68.2675 455,65.5C 455.266,58.9759 455.766,52.4759 456.5,46C 455.555,43.9115 455.555,41.9115 456.5,40C 455.222,31.7413 453.222,23.7413 450.5,16C 451.154,13.6151 451.154,11.1151 450.5,8.5C 450.649,6.6803 451.316,5.1803 452.5,4C 452.167,3.66667 451.833,3.33333 451.5,3C 453.062,1.62193 454.895,0.788597 457,0.5C 461.51,2.34688 466.01,4.01355 470.5,5.5C 475.532,13.2662 480.032,21.9329 484,31.5C 484.273,33.1012 484.773,34.6012 485.5,36C 484.396,37.1313 484.729,37.9646 486.5,38.5C 487.457,43.2897 488.79,47.9563 490.5,52.5C 488.835,55.1773 489.335,57.1773 492,58.5C 498.76,52.6533 501.927,45.32 501.5,36.5C 502.522,35.646 503.355,34.646 504,33.5C 504.333,23.1667 504.667,12.8333 505,2.5C 506.133,0.788847 507.633,0.288847 509.5,1C 515.696,7.02042 521.196,13.5204 526,20.5C 527.757,29.7611 530.09,38.4278 533,46.5C 533.667,54.5 533.667,62.5 533,70.5C 532.933,73.047 532.099,75.2137 530.5,77C 531.022,77.5613 531.355,78.228 531.5,79C 529.65,84.3958 527.983,89.8958 526.5,95.5C 522.868,102.146 519.201,108.812 515.5,115.5C 490.831,140.678 465.831,165.512 440.5,190C 440.833,190.333 441.167,190.667 441.5,191C 432.616,205.266 424.116,219.766 416,234.5C 411.998,244.502 408.831,254.668 406.5,265C 498.166,265.5 589.833,265.667 681.5,265.5C 681.5,252.833 681.5,240.167 681.5,227.5C 685.226,227.177 688.893,227.511 692.5,228.5C 694.439,230.122 694.772,231.956 693.5,234C 696.245,240.321 698.745,246.821 701,253.5C 701.945,257.494 702.778,261.494 703.5,265.5C 707.5,265.5 711.5,265.5 715.5,265.5C 715.33,264.178 715.663,263.011 716.5,262C 710.832,253.629 707.166,244.629 705.5,235C 704.151,234.228 703.318,233.061 703,231.5C 699.583,212.121 697.083,192.621 695.5,173C 698.969,153.593 703.469,134.427 709,115.5C 721.132,89.0002 739.299,67.1669 763.5,50C 788.225,33.4678 815.058,21.6345 844,14.5C 844.833,14.8333 845.667,15.1667 846.5,15.5C 845.352,17.1487 844.019,18.6487 842.5,20C 826.244,28.9654 810.578,38.6321 795.5,49C 794.929,50.2051 794.262,51.3717 793.5,52.5C 789.184,56.6457 784.684,60.6457 780,64.5C 775.562,70.3904 770.895,76.0571 766,81.5C 765.027,83.3921 764.36,85.3921 764,87.5C 760.491,89.8401 758.491,93.1734 758,97.5C 755.891,98.0353 755.391,99.0353 756.5,100.5C 753.881,106.183 751.548,112.017 749.5,118C 747.668,128.342 746.001,138.342 744.5,148C 747.167,149 747.167,150 744.5,151C 745.59,167.872 748.757,184.372 754,200.5C 754.44,202.076 755.273,203.41 756.5,204.5C 756.291,205.086 755.957,205.586 755.5,206C 762.717,218.938 770.05,231.771 777.5,244.5C 779.109,247.778 781.443,250.444 784.5,252.5C 784.291,253.086 783.957,253.586 783.5,254C 788.546,257.148 791.879,260.982 793.5,265.5C 898.502,265.833 1003.5,265.5 1108.5,264.5C 1113.73,260.477 1117.73,255.977 1120.5,251C 1124.74,246.713 1128.74,242.213 1132.5,237.5C 1138.67,226.496 1144.84,215.496 1151,204.5C 1169.28,164.368 1168.95,124.035 1150,83.5C 1144.7,76.277 1139.37,68.9436 1134,61.5C 1131.29,57.7881 1127.96,54.7881 1124,52.5C 1123.73,50.6711 1122.89,49.1711 1121.5,48C 1104.65,34.8593 1086.65,23.1927 1067.5,13C 1066.69,11.0283 1065.36,9.52826 1063.5,8.5C 1064.33,8.16667 1065.17,7.83333 1066,7.5C 1111.13,17.5217 1148.79,39.1884 1179,72.5C 1188,84.6997 1195.67,97.3663 1202,110.5C 1207.06,128.798 1211.23,147.298 1214.5,166C 1212.18,185.511 1209.68,205.011 1207,224.5C 1201.71,237.839 1196.21,251.506 1190.5,265.5C 1198.2,265.169 1205.86,265.503 1213.5,266.5C 1214.93,270.761 1216.09,275.094 1217,279.5C 1217.83,283.541 1217.66,287.541 1216.5,291.5C 1215.14,296.11 1213.98,300.777 1213,305.5C 1209.27,311.21 1205.6,316.877 1202,322.5C 1193.11,330.039 1184.28,337.705 1175.5,345.5C 1186.48,352.016 1197.48,358.683 1208.5,365.5C 1217.6,376.46 1224.6,388.127 1229.5,400.5C 1229.21,405.631 1228.71,410.964 1228,416.5C 1221.82,426.704 1215.82,437.037 1210,447.5C 1208.77,449.866 1207.93,452.366 1207.5,455C 1208.91,462.959 1211.24,470.626 1214.5,478C 1222.01,482.801 1230.18,486.301 1239,488.5C 1241.26,490.38 1243.76,491.88 1246.5,493C 1250.83,496.326 1254.83,499.993 1258.5,504C 1262.45,504.023 1266.29,503.189 1270,501.5C 1277.03,498.399 1283.87,494.899 1290.5,491C 1296,485.833 1301.5,480.667 1307,475.5C 1320.8,454.252 1331.47,431.918 1339,408.5C 1355.73,369.478 1378.4,334.478 1407,303.5C 1433.83,277.325 1463,254.159 1494.5,234C 1495.33,233.312 1496,233.479 1496.5,234.5C 1489.82,240.704 1482.82,246.704 1475.5,252.5C 1461.5,267.342 1449.83,283.842 1440.5,302C 1438.66,309.185 1436.16,315.685 1433,321.5C 1425.19,329.96 1417.35,338.293 1409.5,346.5 Z M 1158.5,66.5 C 1158.9,65.475 1159.56,65.3083 1160.5,66C 1200.86,109.783 1212.69,160.616 1196,218.5C 1189.93,234.557 1182.43,249.89 1173.5,264.5C 1170.89,265.652 1168.23,265.818 1165.5,265C 1167,264.167 1168.17,263 1169,261.5C 1186.76,231.667 1195.92,199.834 1196.5,166C 1194.75,127.736 1182.09,94.5697 1158.5,66.5 Z M 749.5,72.5 C 751.225,72.8425 751.725,73.8425 751,75.5C 743.783,83.0787 737.616,91.5787 732.5,101C 712.56,140.299 708.727,181.132 721,223.5C 723.937,232.309 727.27,240.976 731,249.5C 735.621,258.768 740.621,267.768 746,276.5C 746.818,279.227 746.652,281.894 745.5,284.5C 727.571,260.985 715.404,234.651 709,205.5C 704.725,178.7 706.892,152.534 715.5,127C 720.588,115.925 726.088,105.092 732,94.5C 738.069,87.3664 743.902,80.0331 749.5,72.5 Z M 551.5,539.5 C 558.923,541.931 566.59,544.764 574.5,548C 584.597,551.216 594.93,553.549 605.5,555C 606.673,558.11 606.173,558.277 604,555.5C 603.333,556.167 602.667,556.833 602,557.5C 591.88,556.031 581.713,553.364 571.5,549.5C 570.263,549.556 569.263,550.056 568.5,551C 570.874,552.775 573.374,553.941 576,554.5C 576.333,554.167 576.667,553.833 577,553.5C 580.3,554.626 583.634,555.626 587,556.5C 587.333,556.167 587.667,555.833 588,555.5C 589.329,556.494 590.662,557.494 592,558.5C 604.492,562.902 617.325,566.235 630.5,568.5C 631.833,569.167 633.167,569.833 634.5,570.5C 634.167,570.833 633.833,571.167 633.5,571.5C 629.221,570.726 624.887,570.226 620.5,570C 618.939,569.682 617.772,568.849 617,567.5C 615.088,569.994 613.254,569.827 611.5,567C 609.444,566.689 607.444,566.189 605.5,565.5C 602.897,565.32 600.231,565.32 597.5,565.5C 598.945,567.063 600.611,568.396 602.5,569.5C 603.478,569.023 604.311,568.357 605,567.5C 609.189,570.728 614.022,572.228 619.5,572C 620.974,573.316 622.641,574.316 624.5,575C 636.125,576.699 647.791,578.032 659.5,579C 663.626,580.166 667.792,581.333 672,582.5C 672.561,581.978 673.228,581.645 674,581.5C 679.514,582.143 685.014,582.81 690.5,583.5C 698.831,582.401 706.997,582.401 715,583.5C 720.514,582.857 726.014,582.19 731.5,581.5C 732.086,581.709 732.586,582.043 733,582.5C 733.759,580.937 734.926,579.937 736.5,579.5C 736.631,578.624 736.298,577.957 735.5,577.5C 733.267,577.864 731.434,578.864 730,580.5C 728.667,577.833 727.333,577.833 726,580.5C 724.526,578.085 722.86,578.085 721,580.5C 720.05,579.978 719.216,579.311 718.5,578.5C 717.051,579.617 715.384,580.284 713.5,580.5C 698.78,578.321 683.78,576.654 668.5,575.5C 668.5,574.5 668.5,573.5 668.5,572.5C 671.711,572.012 674.544,572.679 677,574.5C 677.388,573.572 678.055,572.905 679,572.5C 680.396,573.394 681.896,574.061 683.5,574.5C 684.647,574.182 685.481,573.516 686,572.5C 688.865,574.515 692.032,575.848 695.5,576.5C 695.67,575.178 695.337,574.011 694.5,573C 692,572.167 689.5,571.333 687,570.5C 686.228,570.645 685.561,570.978 685,571.5C 677.496,569.749 669.996,567.916 662.5,566C 665.694,565.408 668.861,565.574 672,566.5C 672.833,566.167 673.667,565.833 674.5,565.5C 672.988,564.138 671.488,563.804 670,564.5C 668.527,562.864 666.693,561.864 664.5,561.5C 657.103,560.317 649.769,558.817 642.5,557C 633.428,554.652 624.428,551.985 615.5,549C 615.167,548.667 614.833,548.333 614.5,548C 619.926,547.741 625.26,547.574 630.5,547.5C 640.004,549.373 649.504,550.039 659,549.5C 660.5,549.167 662,548.833 663.5,548.5C 660.06,546.777 656.394,546.11 652.5,546.5C 652.5,545.167 652.5,543.833 652.5,542.5C 666.497,546.503 680.831,548.669 695.5,549C 695.833,549.333 696.167,549.667 696.5,550C 695.026,551.316 693.359,552.316 691.5,553C 685.753,554.513 680.086,555.013 674.5,554.5C 674.5,555.833 674.5,557.167 674.5,558.5C 684.385,558.555 693.719,560.222 702.5,563.5C 700.602,562.904 698.935,562.904 697.5,563.5C 696.022,563.238 694.689,563.571 693.5,564.5C 694.025,565.192 694.692,565.692 695.5,566C 702.677,566.234 709.51,567.734 716,570.5C 728.109,570.521 740.275,570.188 752.5,569.5C 752.5,568.5 752.5,567.5 752.5,566.5C 747.063,566.38 741.73,565.546 736.5,564C 728.681,561.394 721.014,558.394 713.5,555C 719.007,554.703 724.674,554.037 730.5,553C 735.764,550.648 741.097,548.482 746.5,546.5C 746.291,545.914 745.957,545.414 745.5,545C 736.961,545.114 728.628,543.947 720.5,541.5C 717.955,542.25 715.455,541.916 713,540.5C 712.5,458.167 712.333,375.834 712.5,293.5C 720.5,293.5 728.5,293.5 736.5,293.5C 736.333,368.501 736.5,443.501 737,518.5C 740.734,526.302 745.234,533.635 750.5,540.5C 751.946,542.618 752.613,544.951 752.5,547.5C 757.833,547.5 763.167,547.5 768.5,547.5C 768.5,463.167 768.5,378.833 768.5,294.5C 774.093,294.807 779.593,294.473 785,293.5C 785.333,329.5 785.667,365.5 786,401.5C 792.156,405.582 798.156,409.915 804,414.5C 812.952,406.044 821.452,397.044 829.5,387.5C 853.738,364.678 880.572,345.344 910,329.5C 910.903,330.701 912.069,331.535 913.5,332C 899.205,343.823 887.872,357.49 879.5,373C 875.024,377.322 871.024,382.155 867.5,387.5C 868.609,388.965 868.109,389.965 866,390.5C 862.371,395.447 859.371,400.78 857,406.5C 846.744,420.027 836.744,433.694 827,447.5C 823.701,462.514 823.701,477.514 827,492.5C 829.431,496.363 831.598,500.363 833.5,504.5C 836.38,508.215 839.713,511.381 843.5,514C 847.631,515.867 851.964,516.7 856.5,516.5C 863.494,515.554 870.494,515.054 877.5,515C 883.554,518.694 889.888,521.861 896.5,524.5C 910.045,526.312 923.378,528.812 936.5,532C 945.077,534.473 953.077,538.139 960.5,543C 966.047,548.67 971.214,554.503 976,560.5C 984.448,574.954 994.448,588.288 1006,600.5C 1006.51,601.996 1006.01,603.163 1004.5,604C 954.871,620.278 905.371,636.778 856,653.5C 824.382,661.154 792.716,668.821 761,676.5C 735.997,681.191 710.83,685.358 685.5,689C 629.165,693.637 572.832,693.637 516.5,689C 494.498,684.666 472.498,680.333 450.5,676C 426.669,668.706 402.669,661.706 378.5,655C 360.299,647.877 341.966,641.043 323.5,634.5C 288.898,625.141 254.065,616.475 219,608.5C 208.758,605.461 199.258,600.961 190.5,595C 168.24,584.539 145.907,574.039 123.5,563.5C 104.612,552.061 85.9454,540.561 67.5,529C 118.737,514.599 169.404,498.599 219.5,481C 227.315,477.259 234.982,473.259 242.5,469C 253.542,459.572 262.209,448.738 268.5,436.5C 275.825,420.288 277.491,403.454 273.5,386C 271.433,382.7 269.767,379.2 268.5,375.5C 261.354,365.408 252.021,357.908 240.5,353C 212.421,344.884 185.421,347.717 159.5,361.5C 157.358,359.43 156.024,356.93 155.5,354C 155.605,343.345 158.772,333.512 165,324.5C 190.767,296.397 221.6,289.397 257.5,303.5C 264.67,308.184 271.67,313.017 278.5,318C 284.033,324.512 289.533,330.346 295,335.5C 298,340.5 301,345.5 304,350.5C 304.75,351.126 305.584,351.626 306.5,352C 306.167,352.333 305.833,352.667 305.5,353C 310.893,360.282 315.393,368.115 319,376.5C 322.348,384.206 324.848,392.206 326.5,400.5C 326.818,401.647 327.484,402.481 328.5,403C 327.941,403.725 327.608,404.558 327.5,405.5C 329.313,452.411 330.146,499.411 330,546.5C 336.635,555.903 343.135,565.403 349.5,575C 353.486,575.499 357.486,575.666 361.5,575.5C 361.5,481.5 361.5,387.5 361.5,293.5C 448.169,293.167 534.836,293.5 621.5,294.5C 620.167,296.833 620.167,299.167 621.5,301.5C 620.209,302.825 618.876,304.158 617.5,305.5C 556.632,335.176 495.465,364.176 434,392.5C 432.321,393.682 430.821,395.015 429.5,396.5C 434.352,410.896 439.686,425.063 445.5,439C 470.549,438.231 494.882,441.898 518.5,450C 526.303,453.444 534.136,456.944 542,460.5C 574.427,477.617 602.26,500.283 625.5,528.5C 619.372,528.664 613.205,529.33 607,530.5C 606.107,529.289 605.274,529.289 604.5,530.5C 604.833,531.5 605.5,532.167 606.5,532.5C 610.185,531.637 614.019,531.303 618,531.5C 618.75,532.126 619.584,532.626 620.5,533C 609.923,533.819 599.423,533.652 589,532.5C 588.316,533.784 588.483,534.951 589.5,536C 588.737,536.944 587.737,537.444 586.5,537.5C 574.573,534.31 562.24,531.477 549.5,529C 515.938,518.976 485.771,503.142 459,481.5C 459.367,485.916 461.534,489.416 465.5,492C 476.685,499.424 488.018,506.591 499.5,513.5C 516.464,521.362 533.63,528.696 551,535.5C 558.404,537.357 565.904,538.69 573.5,539.5C 573.649,540.552 573.483,541.552 573,542.5C 569.255,541.703 565.421,541.203 561.5,541C 558.945,539.556 556.279,538.389 553.5,537.5C 552.287,537.747 551.62,538.414 551.5,539.5 Z M 652.5,293.5 C 662.167,293.5 671.833,293.5 681.5,293.5C 681.167,369.836 681.5,446.17 682.5,522.5C 683.357,523.736 684.023,525.069 684.5,526.5C 682.249,526.287 680.249,527.287 678.5,529.5C 680.826,529.514 683.16,529.514 685.5,529.5C 688.049,530.75 689.382,532.75 689.5,535.5C 682.69,533.752 675.857,531.752 669,529.5C 663.506,529.356 658.006,529.689 652.5,530.5C 652.5,451.5 652.5,372.5 652.5,293.5 Z M 808.5,293.5 C 895.291,294.078 982.291,294.578 1069.5,295C 1059.46,303.376 1050.46,312.709 1042.5,323C 1034.73,324.899 1027.07,324.399 1019.5,321.5C 1016.32,319.897 1012.99,318.731 1009.5,318C 1008.5,317.167 1007.5,316.333 1006.5,315.5C 990.361,312.402 974.194,312.069 958,314.5C 953.221,316.779 948.221,318.446 943,319.5C 940.516,319.174 938.349,318.174 936.5,316.5C 931.767,310.598 926.267,305.598 920,301.5C 902.736,307.869 886.236,315.869 870.5,325.5C 848.224,340.414 827.391,357.081 808,375.5C 807.176,348.095 807.343,320.761 808.5,293.5 Z M 929.5,341.5 C 932.346,341.809 933.846,343.475 934,346.5C 935.292,354.557 934.125,362.224 930.5,369.5C 925.65,375.795 920.817,381.462 916,386.5C 912.661,393.434 910.328,401.101 909,409.5C 908.355,410.646 907.522,411.646 906.5,412.5C 906.709,413.086 907.043,413.586 907.5,414C 903.444,420.526 899.111,426.86 894.5,433C 893.262,436.217 891.928,439.384 890.5,442.5C 888.857,448.808 889.857,454.642 893.5,460C 896.813,463.287 900.646,464.12 905,462.5C 909.36,460.602 913.86,459.102 918.5,458C 926.585,453.084 935.251,449.751 944.5,448C 960.407,447.825 976.241,447.325 992,446.5C 992.414,446.957 992.914,447.291 993.5,447.5C 1000.68,446.413 1007.34,443.913 1013.5,440C 1018.64,436.361 1023.31,432.194 1027.5,427.5C 1031.19,422.818 1034.85,418.151 1038.5,413.5C 1043.71,403.593 1050.04,394.427 1057.5,386C 1060.4,385.057 1062.73,383.39 1064.5,381C 1082.31,374.567 1091.98,380.733 1093.5,399.5C 1091.83,407.475 1090.17,415.475 1088.5,423.5C 1086.65,427.223 1085.32,431.056 1084.5,435C 1084.54,436.764 1084.88,438.431 1085.5,440C 1087.12,440.615 1088.45,441.615 1089.5,443C 1090.83,443.667 1092.17,443.667 1093.5,443C 1098.16,439.589 1101.99,435.422 1105,430.5C 1108.14,421.918 1109.97,413.085 1110.5,404C 1109.67,395.26 1108.34,386.594 1106.5,378C 1108.34,373.557 1111.68,370.723 1116.5,369.5C 1123.14,373.109 1126.48,378.776 1126.5,386.5C 1128.35,396.763 1128.85,407.097 1128,417.5C 1125.75,426.1 1123.75,434.767 1122,443.5C 1121.17,444.662 1120.34,445.829 1119.5,447C 1115.85,459.914 1112.52,472.914 1109.5,486C 1110.95,488.885 1110.61,491.551 1108.5,494C 1110.24,500.794 1112.07,507.628 1114,514.5C 1125.13,533.161 1141.29,545.161 1162.5,550.5C 1162.44,552.592 1161.44,554.092 1159.5,555C 1131.62,563.276 1103.96,572.109 1076.5,581.5C 1071.78,581.442 1069.44,579.109 1069.5,574.5C 1071.01,563.767 1072.84,553.101 1075,542.5C 1077.23,539.5 1078.9,536.167 1080,532.5C 1084.2,528.985 1087.03,524.985 1088.5,520.5C 1087.1,518.87 1086.1,517.036 1085.5,515C 1083.5,514.333 1081.5,514.333 1079.5,515C 1074.66,521.734 1069.99,529.234 1065.5,537.5C 1063.46,540.039 1060.96,542.039 1058,543.5C 1057,542.833 1056,542.167 1055,541.5C 1054.08,525.716 1055.08,510.05 1058,494.5C 1061.41,485.123 1063.58,475.623 1064.5,466C 1069.14,453.908 1073.31,441.741 1077,429.5C 1077.39,424.579 1078.22,419.746 1079.5,415C 1080.01,408.459 1077.51,403.625 1072,400.5C 1062.9,406.363 1056.4,414.363 1052.5,424.5C 1053.17,426.5 1054.5,427.833 1056.5,428.5C 1058.65,427.106 1060.98,426.44 1063.5,426.5C 1063.48,428.143 1064.15,429.476 1065.5,430.5C 1063.68,435.672 1062.18,441.006 1061,446.5C 1060.36,447.966 1059.53,449.3 1058.5,450.5C 1058.71,451.086 1059.04,451.586 1059.5,452C 1058.48,452.519 1057.82,453.353 1057.5,454.5C 1052.52,470.276 1047.35,485.943 1042,501.5C 1041.26,507.211 1040.26,512.878 1039,518.5C 1038.44,526.916 1039.11,535.249 1041,543.5C 1044.94,555.807 1047.78,568.307 1049.5,581C 1049.44,583.225 1049.1,585.392 1048.5,587.5C 1042.55,590.304 1036.39,592.638 1030,594.5C 1028.5,594 1027,593.5 1025.5,593C 1007.86,574.695 989.527,557.029 970.5,540C 963.743,534.955 956.41,530.955 948.5,528C 937.721,523.796 926.721,520.296 915.5,517.5C 914.833,516.833 914.167,516.167 913.5,515.5C 914,515.167 914.5,514.833 915,514.5C 923.033,513.608 930.866,511.942 938.5,509.5C 940.397,504.41 938.564,501.743 933,501.5C 924.28,503.071 916.447,506.571 909.5,512C 905.5,512.667 901.5,512.667 897.5,512C 890.046,509.427 882.546,506.927 875,504.5C 865.137,507.387 855.137,508.387 845,507.5C 840.874,505.089 840.54,502.089 844,498.5C 850.233,493.681 856.9,492.681 864,495.5C 864.333,495.167 864.667,494.833 865,494.5C 866.786,496.099 868.953,496.933 871.5,497C 882.712,499.934 891.378,496.601 897.5,487C 900.052,479.742 898.386,473.742 892.5,469C 888.349,466.878 884.016,465.211 879.5,464C 878.944,461.763 877.944,459.763 876.5,458C 869.549,458.853 862.549,459.186 855.5,459C 854.196,458.196 853.529,457.029 853.5,455.5C 856.942,449.979 859.776,443.646 862,436.5C 874.025,418.072 885.359,399.072 896,379.5C 901.792,373.277 907.126,366.61 912,359.5C 918.036,353.631 923.87,347.631 929.5,341.5 Z M 617.5,342.5 C 618.978,342.238 620.311,342.571 621.5,343.5C 620.514,396.891 620.181,450.224 620.5,503.5C 590.359,462.328 551.359,431.162 503.5,410C 498.551,408.346 493.551,406.846 488.5,405.5C 530.604,384.781 572.937,364.614 615.5,345C 616.756,344.583 617.423,343.75 617.5,342.5 Z M 1409.5,346.5 C 1408.83,348.5 1407.5,349.833 1405.5,350.5C 1405.83,348.167 1407.17,346.833 1409.5,346.5 Z M 964.5,386.5 C 967.054,386.505 969.721,386.171 972.5,385.5C 979.315,386.828 985.982,388.661 992.5,391C 984.425,397.26 975.758,402.426 966.5,406.5C 966.5,405.5 966.5,404.5 966.5,403.5C 972.01,403.253 976.01,400.753 978.5,396C 975.861,390.68 971.527,388.513 965.5,389.5C 964.696,391.836 965.029,394.17 966.5,396.5C 965.134,399.692 964.301,403.026 964,406.5C 963.586,406.957 963.086,407.291 962.5,407.5C 960.328,407.324 957.995,407.157 955.5,407C 952.918,405.667 950.251,404.5 947.5,403.5C 948.242,402.713 949.075,402.047 950,401.5C 950.946,398.353 952.113,395.353 953.5,392.5C 949.274,393.723 946.274,396.389 944.5,400.5C 944.709,401.086 945.043,401.586 945.5,402C 940.618,403.548 939.284,406.715 941.5,411.5C 943.025,414.563 945.025,417.23 947.5,419.5C 946.209,420.825 944.876,422.158 943.5,423.5C 941.932,421.8 940.099,420.466 938,419.5C 936.093,412.096 937.26,405.096 941.5,398.5C 946.175,392.093 951.509,386.427 957.5,381.5C 963.22,378.815 969.22,377.149 975.5,376.5C 975.5,377.5 975.5,378.5 975.5,379.5C 970.773,379.909 966.44,381.409 962.5,384C 963.381,384.708 964.047,385.542 964.5,386.5 Z M 1403.5,397.5 C 1403.14,399.19 1402.14,400.19 1400.5,400.5C 1400.5,398.5 1401.5,397.5 1403.5,397.5 Z M 1421.5,401.5 C 1420.74,403.262 1419.4,404.262 1417.5,404.5C 1418.26,402.738 1419.6,401.738 1421.5,401.5 Z M 1415.5,408.5 C 1415.04,410.773 1413.71,412.106 1411.5,412.5C 1411.96,410.227 1413.29,408.894 1415.5,408.5 Z M 397.5,436.5 C 397.671,439.797 397.005,440.131 395.5,437.5C 395.957,436.702 396.624,436.369 397.5,436.5 Z M 1404.5,443.5 C 1404.63,446.367 1403.3,448.033 1400.5,448.5C 1401.48,446.52 1402.82,444.853 1404.5,443.5 Z M 869.5,474.5 C 870.601,475.848 871.601,477.348 872.5,479C 875.762,479.335 878.762,478.502 881.5,476.5C 884.151,478.415 883.817,479.915 880.5,481C 874.881,482.299 869.214,482.632 863.5,482C 862.044,481.577 861.544,480.744 862,479.5C 864.426,477.548 866.926,475.881 869.5,474.5 Z M 834.5,481.5 C 836.581,482.727 838.581,484.227 840.5,486C 838.5,488 836.5,488 834.5,486C 833.272,484.51 833.272,483.01 834.5,481.5 Z M 1220.5,488.5 C 1227.28,491.725 1233.95,495.225 1240.5,499C 1248.95,504.27 1257.28,509.77 1265.5,515.5C 1264.79,518.673 1263.62,521.673 1262,524.5C 1246.93,529.918 1231.59,534.584 1216,538.5C 1215.5,538.167 1215,537.833 1214.5,537.5C 1216.78,535.173 1218.62,532.506 1220,529.5C 1223.88,518.139 1225.54,506.472 1225,494.5C 1223.23,492.581 1221.73,490.581 1220.5,488.5 Z M 1403.5,510.5 C 1403.25,511.922 1402.42,512.922 1401,513.5C 1400.48,511.511 1401.31,510.511 1403.5,510.5 Z M 774.5,767.5 C 773.453,768.078 773.62,768.744 775,769.5C 775.399,769.272 775.565,768.938 775.5,768.5C 776.239,768.369 776.906,768.536 777.5,769C 776.304,769.654 776.304,770.154 777.5,770.5C 778.5,770.167 779.167,769.5 779.5,768.5C 774.286,762.569 769.953,756.069 766.5,749C 766.833,748.667 767.167,748.333 767.5,748C 765.951,746.786 764.785,745.286 764,743.5C 759.323,730.473 754.49,717.473 749.5,704.5C 747.301,699.88 748.635,697.213 753.5,696.5C 755.803,708.852 759.303,720.852 764,732.5C 764.969,735.955 766.969,738.622 770,740.5C 766.434,726.994 762.934,712.994 759.5,698.5C 759.608,697.558 759.941,696.725 760.5,696C 762.81,695.503 765.143,695.337 767.5,695.5C 768.734,711.773 771.567,727.773 776,743.5C 776.318,745.061 777.151,746.228 778.5,747C 777.978,747.561 777.645,748.228 777.5,749C 780.443,758.951 783.61,768.784 787,778.5C 787.5,779.667 788.333,780.5 789.5,781C 788.978,781.561 788.645,782.228 788.5,783C 793.253,794.611 798.42,806.444 804,818.5C 804.781,819.944 804.614,821.277 803.5,822.5C 794.057,815.793 785.057,808.626 776.5,801C 769.279,793.117 762.113,785.284 755,777.5C 738.159,754.666 723.993,730.166 712.5,704C 714.569,701.453 717.069,700.953 720,702.5C 729.569,726.952 742.569,749.952 759,771.5C 761.669,773.34 764.169,775.34 766.5,777.5C 768.05,776.268 769.717,775.768 771.5,776C 773.676,780.21 776.843,783.377 781,785.5C 781.115,783.893 780.615,782.393 779.5,781C 777.009,777.501 774.175,774.334 771,771.5C 758.124,749.925 746.957,726.425 737.5,701C 738.333,698.5 739.833,698 742,699.5C 748.224,718.949 755.89,737.282 765,754.5C 767.969,758.97 771.136,763.304 774.5,767.5 Z M 760.5,767.5 C 746.907,746.307 735.574,724.307 726.5,701.5C 728.045,700.548 729.712,700.215 731.5,700.5C 734.605,711.243 738.772,721.576 744,731.5C 751.346,745.622 759.179,759.289 767.5,772.5C 766.448,772.649 765.448,772.483 764.5,772C 763.301,770.306 761.968,768.806 760.5,767.5 Z M 570.5,778.5 C 571.006,780.105 571.673,780.439 572.5,779.5C 573.5,779.5 574.5,779.5 575.5,779.5C 576.278,778.844 576.944,778.011 577.5,777C 575.982,775.649 574.649,774.149 573.5,772.5C 566.684,764.906 559.85,757.239 553,749.5C 547.911,742.867 543.244,735.867 539,728.5C 536.891,727.965 536.391,726.965 537.5,725.5C 536.675,724.614 535.675,724.281 534.5,724.5C 534.577,721.491 533.244,719.324 530.5,718C 530.833,717.667 531.167,717.333 531.5,717C 528.291,714.629 526.624,711.463 526.5,707.5C 529.5,707.5 532.5,707.5 535.5,707.5C 540.992,715.827 546.325,724.493 551.5,733.5C 552.325,734.386 553.325,734.719 554.5,734.5C 554.366,736.292 554.699,737.958 555.5,739.5C 557.256,740.552 557.923,742.219 557.5,744.5C 558.552,744.351 559.552,744.517 560.5,745C 561.364,747.562 563.031,749.395 565.5,750.5C 563.989,752.838 564.323,753.504 566.5,752.5C 567.5,754.833 569.167,756.5 571.5,757.5C 572.429,758.689 572.762,760.022 572.5,761.5C 575.114,761.705 577.448,761.705 579.5,761.5C 578.833,759.5 578.167,757.5 577.5,755.5C 576.675,754.614 575.675,754.281 574.5,754.5C 574.649,753.448 574.483,752.448 574,751.5C 569.932,747.105 566.265,742.438 563,737.5C 558.516,728.401 553.349,719.901 547.5,712C 549.695,710.627 552.029,710.294 554.5,711C 558.64,715.333 561.306,720.5 562.5,726.5C 563.5,726.5 564.5,726.5 565.5,726.5C 567.165,732.519 570.165,737.853 574.5,742.5C 575.833,743.5 577.167,744.5 578.5,745.5C 579.344,740.458 577.844,736.125 574,732.5C 572.766,728.141 570.766,724.141 568,720.5C 566.851,717.607 566.351,714.607 566.5,711.5C 568.591,711.318 570.591,711.652 572.5,712.5C 573.187,714.555 574.354,716.221 576,717.5C 576.121,721.191 578.287,723.858 582.5,725.5C 582.833,725.333 583.167,725.167 583.5,725C 582.25,720.751 580.916,716.584 579.5,712.5C 582.397,712.681 585.23,712.348 588,711.5C 589.732,711.734 590.566,712.734 590.5,714.5C 589.154,718.178 587.821,721.845 586.5,725.5C 586.551,727.1 586.884,728.6 587.5,730C 585.79,735.067 584.79,740.4 584.5,746C 584.783,750.622 585.783,754.955 587.5,759C 586.2,763.45 586.2,767.95 587.5,772.5C 590.768,783.422 594.435,794.256 598.5,805C 595.04,805.065 592.373,803.565 590.5,800.5C 588.883,799.962 587.216,799.629 585.5,799.5C 585.67,798.178 585.337,797.011 584.5,796C 580.909,793.988 577.409,791.821 574,789.5C 573.517,788.552 573.351,787.552 573.5,786.5C 571.217,786.392 569.217,785.559 567.5,784C 560.087,776.581 552.753,769.414 545.5,762.5C 543.896,761.713 543.229,760.38 543.5,758.5C 540.308,756.828 537.475,754.495 535,751.5C 533.223,748.332 530.889,745.665 528,743.5C 527.517,742.552 527.351,741.552 527.5,740.5C 526.325,740.719 525.325,740.386 524.5,739.5C 517.721,729.008 510.221,719.008 502,709.5C 501.506,707.866 501.34,706.199 501.5,704.5C 506.269,704.46 510.602,705.793 514.5,708.5C 516.547,713.194 519.047,717.528 522,721.5C 522.903,722.701 524.069,723.535 525.5,724C 525.043,724.414 524.709,724.914 524.5,725.5C 530.439,733.059 536.606,740.392 543,747.5C 543.739,749.221 544.573,750.887 545.5,752.5C 549.228,755.561 552.561,758.895 555.5,762.5C 556.246,763.736 556.579,765.07 556.5,766.5C 560.151,766.162 561.817,767.828 561.5,771.5C 562.873,771.343 564.207,771.51 565.5,772C 564.167,773.84 564.334,774.34 566,773.5C 568.446,774.445 569.946,776.111 570.5,778.5 Z M 675.5,789.5 C 677.035,788.212 678.701,788.212 680.5,789.5C 683.192,791.252 685.192,793.585 686.5,796.5C 687.5,797.833 688.5,797.833 689.5,796.5C 679.693,783.974 672.027,770.141 666.5,755C 664.206,749.814 661.706,744.648 659,739.5C 656.581,729.351 653.081,719.685 648.5,710.5C 650.736,709.188 652.736,709.521 654.5,711.5C 660.626,735.611 669.626,757.611 681.5,777.5C 683.028,778.861 684.695,780.028 686.5,781C 684.068,782.087 684.402,782.587 687.5,782.5C 683.262,774.341 679.095,766.008 675,757.5C 670.54,745.33 666.54,732.997 663,720.5C 661.925,716.23 661.425,711.897 661.5,707.5C 663.818,707.657 665.484,708.824 666.5,711C 667.607,716.308 668.607,721.642 669.5,727C 671.802,732.64 673.636,738.807 675,745.5C 675.645,746.646 676.478,747.646 677.5,748.5C 676.509,750.123 677.176,751.123 679.5,751.5C 679.833,751.167 680.167,750.833 680.5,750.5C 676.239,736.51 673.572,722.177 672.5,707.5C 675.079,707.083 677.246,707.75 679,709.5C 680.277,725.328 682.61,740.994 686,756.5C 686.199,758.402 687.033,759.902 688.5,761C 687.978,761.561 687.645,762.228 687.5,763C 690.424,774.19 693.591,785.357 697,796.5C 701.556,810.154 706.389,823.154 711.5,835.5C 710.127,835.657 708.793,835.49 707.5,835C 692.046,821.55 678.046,806.883 665.5,791C 665.833,790.667 666.167,790.333 666.5,790C 664.228,787.973 662.061,785.806 660,783.5C 656.243,777.048 652.41,770.548 648.5,764C 648.833,763.667 649.167,763.333 649.5,763C 648.584,762.626 647.75,762.126 647,761.5C 644.203,755.728 641.037,750.228 637.5,745C 637.833,744.667 638.167,744.333 638.5,744C 633.246,734.927 628.746,725.427 625,715.5C 624.506,713.866 624.34,712.199 624.5,710.5C 627.685,710.02 630.519,710.686 633,712.5C 641.682,738.893 653.682,762.893 669,784.5C 670.011,785.337 671.178,785.67 672.5,785.5C 672.088,787.973 673.088,789.306 675.5,789.5 Z M 639.5,709.5 C 642.148,709.738 643.982,711.072 645,713.5C 651.848,737.897 661.848,760.23 675,780.5C 675.749,781.635 675.583,782.635 674.5,783.5C 669.926,780.394 667.259,776.561 666.5,772C 663.804,768.785 661.471,765.285 659.5,761.5C 653.686,747.597 647.853,734.264 642,721.5C 640.717,717.586 639.884,713.586 639.5,709.5 Z"/></g>
<g><path style="opacity:0.004" fill="#000000" d="M 336.5,66.5 C 335.833,67.1667 335.833,67.1667 336.5,66.5 Z"/></g>
<g><path style="opacity:0.875" fill="#000000" d="M 490.5,354.5 C 489.833,354.5 489.5,354.833 489.5,355.5C 488.167,355.833 488.167,356.167 489.5,356.5C 489.007,358.49 487.84,358.49 486,356.5C 481.907,360.432 477.407,363.766 472.5,366.5C 453.118,374.689 435.118,385.189 418.5,398C 412.72,404.71 407.053,412.044 401.5,420C 401.833,420.333 402.167,420.667 402.5,421C 399.541,425.642 397.874,430.809 397.5,436.5C 399.528,433.53 402.028,430.864 405,428.5C 405.167,429 405.333,429.5 405.5,430C 398.081,442.605 396.248,456.105 400,470.5C 402.603,477.041 405.936,483.707 410,490.5C 417.044,496.885 423.044,504.218 428,512.5C 434.021,518.097 440.521,523.097 447.5,527.5C 447.833,527.167 448.167,526.833 448.5,526.5C 446.01,523.188 444.343,519.522 443.5,515.5C 446.488,515.329 448.488,516.662 449.5,519.5C 463.524,530.124 478.524,539.29 494.5,547C 515.711,555.403 537.044,563.403 558.5,571C 569.929,574.272 581.596,576.772 593.5,578.5C 600.025,580.465 607.359,582.299 615.5,584C 628.702,586.263 642.035,588.097 655.5,589.5C 658.38,588.512 660.88,589.179 663,591.5C 664.667,588.833 666.333,588.833 668,591.5C 673.119,589.857 678.452,588.857 684,588.5C 685.706,589.308 686.539,590.641 686.5,592.5C 667.488,592.154 648.154,592.154 628.5,592.5C 624.492,591.594 620.492,590.594 616.5,589.5C 606.314,588.525 596.314,587.692 586.5,587C 583.881,586.849 581.547,586.015 579.5,584.5C 578.479,585.002 578.312,585.668 579,586.5C 582.833,589.5 586.667,592.5 590.5,595.5C 593.464,598.801 596.464,602.134 599.5,605.5C 601.371,608.234 602.371,611.234 602.5,614.5C 592.161,614.666 581.828,614.5 571.5,614C 555.42,607.129 540.42,598.462 526.5,588C 525.5,587.333 524.5,587.333 523.5,588C 526.535,591.37 529.868,594.37 533.5,597C 532.975,597.692 532.308,598.192 531.5,598.5C 511.327,592.164 491.827,584.164 473,574.5C 457.23,565.033 441.396,555.699 425.5,546.5C 418.167,540.833 410.833,535.167 403.5,529.5C 398.488,523.988 393.321,518.655 388,513.5C 387.173,509.681 385.173,506.681 382,504.5C 380.763,500.94 380.263,497.273 380.5,493.5C 379.5,493.5 378.5,493.5 377.5,493.5C 376.851,495.477 376.851,497.31 377.5,499C 377.37,500.059 376.87,500.892 376,501.5C 371.646,496.331 370.479,490.498 372.5,484C 373.799,482.674 375.132,481.34 376.5,480C 382.278,479.608 387.944,479.942 393.5,481C 385.164,463.626 383.831,445.626 389.5,427C 392.482,421.04 395.649,415.207 399,409.5C 402.439,405.057 406.273,400.89 410.5,397C 414.5,393.667 418.5,390.333 422.5,387C 439.142,377.556 456.308,369.056 474,361.5C 476.791,358.869 479.958,356.869 483.5,355.5C 484.491,353.677 485.824,352.177 487.5,351C 486.167,349 486.167,347 487.5,345C 485.992,343.493 484.659,341.827 483.5,340C 472.06,336.139 460.727,331.973 449.5,327.5C 446.428,325.056 445.428,322.056 446.5,318.5C 455.108,318.363 463.775,318.196 472.5,318C 477.52,317.247 482.187,315.581 486.5,313C 488.5,312.333 490.5,312.333 492.5,313C 493.667,314.833 495.167,316.333 497,317.5C 497.798,319.259 497.631,320.926 496.5,322.5C 495.289,320.578 493.956,318.745 492.5,317C 491.333,316.833 490.167,316.667 489,316.5C 482.868,318.484 476.702,320.318 470.5,322C 463.804,322.441 457.137,322.441 450.5,322C 457.207,327.461 464.874,330.794 473.5,332C 476.895,334.26 480.562,336.093 484.5,337.5C 485.134,335.433 486.134,333.6 487.5,332C 485.679,329.544 485.012,326.711 485.5,323.5C 486.833,323.5 488.167,323.5 489.5,323.5C 489.453,328.811 489.12,334.144 488.5,339.5C 489.051,342.056 490.051,344.389 491.5,346.5C 491.563,349.133 491.229,351.799 490.5,354.5 Z M 397.5,436.5 C 396.624,436.369 395.957,436.702 395.5,437.5C 397.005,440.131 397.671,439.797 397.5,436.5 Z"/></g>
<g><path style="opacity:0.008" fill="#000000" d="M 490.5,354.5 C 491.757,355.623 491.424,356.289 489.5,356.5C 489.5,356.167 489.5,355.833 489.5,355.5C 490.167,355.5 490.5,355.167 490.5,354.5 Z"/></g>
<g><path style="opacity:0.612" fill="#000000" d="M 254.5,492.5 C 255.399,493.994 255.065,495.494 253.5,497C 251.385,497.557 249.385,498.391 247.5,499.5C 245.81,502.024 243.643,504.024 241,505.5C 240.819,509.044 239.652,512.21 237.5,515C 237.92,518.352 239.087,521.518 241,524.5C 243.785,527.479 246.952,529.812 250.5,531.5C 251.833,532.833 251.833,534.167 250.5,535.5C 248.205,533.52 245.539,532.353 242.5,532C 234.018,525.03 231.518,516.197 235,505.5C 240.566,499.487 247.066,495.154 254.5,492.5 Z"/></g>
<g><path style="opacity:0.761" fill="#000000" d="M 257.5,498.5 C 274.099,498.252 281.599,505.919 280,521.5C 278.342,524.161 276.676,526.827 275,529.5C 271.417,531.518 267.583,532.852 263.5,533.5C 262.614,532.675 262.281,531.675 262.5,530.5C 263.93,530.579 265.264,530.246 266.5,529.5C 268.269,527.443 270.269,525.61 272.5,524C 271.7,519.92 271.2,515.753 271,511.5C 264.21,504.267 257.043,503.767 249.5,510C 249.833,510.333 250.167,510.667 250.5,511C 245.96,514.985 245.46,519.485 249,524.5C 248.708,517.818 251.541,513.151 257.5,510.5C 264.158,513.362 266.325,518.362 264,525.5C 261.444,526.219 260.277,527.886 260.5,530.5C 249.486,530.774 243.153,525.774 241.5,515.5C 243.119,506.864 248.453,501.197 257.5,498.5 Z"/></g>
<g><path style="opacity:0.013" fill="#000000" d="M 584.5,532.5 C 587.087,533.307 587.587,534.641 586,536.5C 584.812,535.437 584.312,534.103 584.5,532.5 Z"/></g>
<g><path style="opacity:0.021" fill="#000000" d="M 551.5,539.5 C 549.907,540.867 548.574,540.534 547.5,538.5C 548,538.167 548.5,537.833 549,537.5C 550.011,538.056 550.844,538.722 551.5,539.5 Z"/></g>
<g><path style="opacity:0.007" fill="#000000" d="M 697.5,572.5 C 700.125,573.466 700.125,574.466 697.5,575.5C 696.438,574.575 696.438,573.575 697.5,572.5 Z"/></g>
<g><path style="opacity:0.132" fill="#000000" d="M 736.5,579.5 C 738.416,577.884 739.916,578.218 741,580.5C 741.743,578.355 742.576,578.189 743.5,580C 740.815,583.435 738.482,583.269 736.5,579.5 Z"/></g>
</svg>
